<svg width="86" height="82" viewBox="0 0 86 82" fill="none" xmlns="http://www.w3.org/2000/svg">
<circle cx="39.5" cy="39.5" r="39" stroke="black"/>
<circle cx="46.5" cy="42.5" r="39" stroke="#FD6F11"/>
<path d="M22.296 48V35.346H24.744V48H22.296ZM26.8729 40.098L28.1329 37.74L28.8889 37.524C28.8049 37.692 28.7089 37.83 28.6009 37.938C28.4929 38.034 28.3669 38.082 28.2229 38.082C27.9109 38.082 27.6229 37.956 27.3589 37.704C27.1069 37.44 26.9809 37.11 26.9809 36.714C26.9809 36.282 27.1249 35.916 27.4129 35.616C27.7009 35.316 28.0549 35.166 28.4749 35.166C28.8829 35.166 29.2369 35.316 29.5369 35.616C29.8369 35.916 29.9869 36.282 29.9869 36.714C29.9869 36.882 29.9509 37.086 29.8789 37.326C29.8069 37.554 29.6749 37.848 29.4829 38.208L28.0969 40.764L26.8729 40.098ZM33.638 48V45.822H36.86C37.676 45.822 38.39 45.654 39.002 45.318C39.614 44.97 40.088 44.484 40.424 43.86C40.772 43.236 40.946 42.498 40.946 41.646C40.946 40.818 40.772 40.098 40.424 39.486C40.076 38.862 39.596 38.382 38.984 38.046C38.372 37.698 37.664 37.524 36.86 37.524H33.584V35.346H36.896C37.832 35.346 38.696 35.502 39.488 35.814C40.292 36.126 40.988 36.57 41.576 37.146C42.176 37.71 42.638 38.376 42.962 39.144C43.298 39.912 43.466 40.752 43.466 41.664C43.466 42.576 43.298 43.422 42.962 44.202C42.638 44.97 42.182 45.642 41.594 46.218C41.006 46.782 40.31 47.22 39.506 47.532C38.714 47.844 37.856 48 36.932 48H33.638ZM31.964 48V35.346H34.412V48H31.964ZM49.3172 48.18C48.4052 48.18 47.5952 47.988 46.8872 47.604C46.1792 47.208 45.6152 46.668 45.1952 45.984C44.7872 45.3 44.5832 44.52 44.5832 43.644C44.5832 42.78 44.7812 42.012 45.1772 41.34C45.5852 40.656 46.1372 40.116 46.8332 39.72C47.5292 39.312 48.3032 39.108 49.1552 39.108C49.9952 39.108 50.7332 39.3 51.3692 39.684C52.0172 40.056 52.5212 40.572 52.8812 41.232C53.2532 41.88 53.4392 42.618 53.4392 43.446C53.4392 43.602 53.4272 43.764 53.4032 43.932C53.3912 44.088 53.3612 44.268 53.3132 44.472L46.0052 44.49V42.726L52.2152 42.708L51.2612 43.446C51.2372 42.93 51.1412 42.498 50.9732 42.15C50.8172 41.802 50.5832 41.538 50.2712 41.358C49.9712 41.166 49.5992 41.07 49.1552 41.07C48.6872 41.07 48.2792 41.178 47.9312 41.394C47.5832 41.598 47.3132 41.892 47.1212 42.276C46.9412 42.648 46.8512 43.092 46.8512 43.608C46.8512 44.136 46.9472 44.598 47.1392 44.994C47.3432 45.378 47.6312 45.678 48.0032 45.894C48.3752 46.098 48.8072 46.2 49.2992 46.2C49.7432 46.2 50.1452 46.128 50.5052 45.984C50.8652 45.828 51.1772 45.6 51.4412 45.3L52.8272 46.686C52.4072 47.178 51.8912 47.55 51.2792 47.802C50.6792 48.054 50.0252 48.18 49.3172 48.18ZM57.5829 48L53.7489 39.306H56.3409L59.0949 46.47H57.8169L60.5889 39.306H63.0909L59.2749 48H57.5829Z" fill="black"/>
</svg>
